<svg xmlns="http://www.w3.org/2000/svg" xmlns:xlink="http://www.w3.org/1999/xlink" width="21" height="18" viewBox="0 0 21 18"><defs><path id="ksgia" d="M568.01 5513.54a7.1 7.1 0 0 1-2.06.57 3.61 3.61 0 0 0 1.58-2c-.7.42-1.46.72-2.28.88a3.58 3.58 0 0 0-6.22 2.47c0 .28.03.56.1.82a10.18 10.18 0 0 1-7.4-3.77 3.6 3.6 0 0 0 1.1 4.82 3.55 3.55 0 0 1-1.62-.45v.05a3.6 3.6 0 0 0 2.88 3.53 3.57 3.57 0 0 1-1.62.07 3.6 3.6 0 0 0 3.35 2.5 7.19 7.19 0 0 1-5.32 1.5 10.13 10.13 0 0 0 5.51 1.62c6.6 0 10.22-5.5 10.22-10.27l-.01-.47a7.3 7.3 0 0 0 1.8-1.87z"/></defs><g><g opacity=".4" transform="translate(-549 -5510)"><use xlink:href="#ksgia"/></g></g></svg>