<svg xmlns="http://www.w3.org/2000/svg" xmlns:xlink="http://www.w3.org/1999/xlink" width="101" height="11" viewBox="0 0 101 11"><defs><path id="69gya" d="M547.55 858.7l-6-6.2-6.02 6.2-6-6.2-6.01 6.2-6.01-6.2-6.01 6.2-6-6.2-6.02 6.2-6-6.2-6.01 6.2-6.01-6.2-6 6.2-6.02-6.2-5.47 5.65-1.07-1.1 6.54-6.75 6.01 6.2 6-6.2 6.02 6.2 6-6.2 6.01 6.2 6.01-6.2 6.01 6.2 6-6.2 6.02 6.2 6-6.2 6.01 6.2 6.01-6.2 6 6.2 6.02-6.2 6.54 6.74-1.07 1.1-5.47-5.63z"/></defs><g><g opacity=".2" transform="translate(-461 -849)"><use fill="#191919" xlink:href="#69gya"/></g></g></svg>