<svg xmlns="http://www.w3.org/2000/svg" xmlns:xlink="http://www.w3.org/1999/xlink" width="19" height="19" viewBox="0 0 19 19"><defs><path id="xyc5a" d="M48.5 47a1.5 1.5 0 1 1 0 3 1.5 1.5 0 0 1 0-3zm0-7a1.5 1.5 0 1 1 0 3 1.5 1.5 0 0 1 0-3zm0 14a1.5 1.5 0 1 1 0 3 1.5 1.5 0 0 1 0-3zm-7-7a1.5 1.5 0 1 1 0 3 1.5 1.5 0 0 1 0-3zm14 0a1.5 1.5 0 1 1 0 3 1.5 1.5 0 0 1 0-3zm-13.01 5.39a1.5 1.5 0 1 1 2.12 2.12 1.5 1.5 0 0 1-2.12-2.12zm9.9-9.9a1.5 1.5 0 1 1 2.12 2.12 1.5 1.5 0 0 1-2.12-2.12zm-7.8-.06a1.51 1.51 0 1 1-2.13 2.14 1.51 1.51 0 0 1 2.14-2.14zm9.98 9.97a1.51 1.51 0 1 1-2.14 2.14 1.51 1.51 0 0 1 2.14-2.14z"/></defs><g><g transform="translate(-39 -39)"><use fill="#7c7e88" xlink:href="#xyc5a"/></g></g></svg>